<svg width="13" height="20" viewBox="0 0 13 20" fill="none" xmlns="http://www.w3.org/2000/svg">
<path d="M0.625 5.625C0.625 4.13316 1.21763 2.70242 2.27252 1.64752C3.32742 0.592632 4.75816 0 6.25 0C7.74184 0 9.17258 0.592632 10.2275 1.64752C11.2824 2.70242 11.875 4.13316 11.875 5.625C11.875 7.11684 11.2824 8.54758 10.2275 9.60248C9.17258 10.6574 7.74184 11.25 6.25 11.25C4.75816 11.25 3.32742 10.6574 2.27252 9.60248C1.21763 8.54758 0.625 7.11684 0.625 5.625ZM6.25 3.125C6.59375 3.125 6.875 2.84375 6.875 2.5C6.875 2.15625 6.59375 1.875 6.25 1.875C4.17969 1.875 2.5 3.55469 2.5 5.625C2.5 5.96875 2.78125 6.25 3.125 6.25C3.46875 6.25 3.75 5.96875 3.75 5.625C3.75 4.24609 4.87109 3.125 6.25 3.125ZM5 18.75V12.3867C5.40625 12.4609 5.82422 12.5 6.25 12.5C6.67578 12.5 7.09375 12.4609 7.5 12.3867V18.75C7.5 19.4414 6.94141 20 6.25 20C5.55859 20 5 19.4414 5 18.75Z" fill="#336DD1"/>
</svg>
