<svg width="18" height="20" viewBox="0 0 18 20" fill="none" xmlns="http://www.w3.org/2000/svg">
<g clip-path="url(#clip0_164_2133)">
<path d="M11.875 5C11.875 4.1712 11.5458 3.37634 10.9597 2.79029C10.3737 2.20424 9.5788 1.875 8.75 1.875C7.9212 1.875 7.12634 2.20424 6.54029 2.79029C5.95424 3.37634 5.625 4.1712 5.625 5C5.625 5.8288 5.95424 6.62366 6.54029 7.20971C7.12634 7.79576 7.9212 8.125 8.75 8.125C9.5788 8.125 10.3737 7.79576 10.9597 7.20971C11.5458 6.62366 11.875 5.8288 11.875 5ZM3.75 5C3.75 3.67392 4.27678 2.40215 5.21447 1.46447C6.15215 0.526784 7.42392 0 8.75 0C10.0761 0 11.3479 0.526784 12.2855 1.46447C13.2232 2.40215 13.75 3.67392 13.75 5C13.75 6.32608 13.2232 7.59785 12.2855 8.53553C11.3479 9.47322 10.0761 10 8.75 10C7.42392 10 6.15215 9.47322 5.21447 8.53553C4.27678 7.59785 3.75 6.32608 3.75 5ZM1.92578 18.125H15.5742C15.2266 15.6523 13.1016 13.75 10.5352 13.75H6.96484C4.39844 13.75 2.27344 15.6523 1.92578 18.125ZM0 18.8398C0 14.9922 3.11719 11.875 6.96484 11.875H10.5352C14.3828 11.875 17.5 14.9922 17.5 18.8398C17.5 19.4805 16.9805 20 16.3398 20H1.16016C0.519531 20 0 19.4805 0 18.8398Z" fill="#333333"/>
</g>
<defs>
<clipPath id="clip0_164_2133">
<rect width="17.5" height="20" fill="white"/>
</clipPath>
</defs>
</svg>
